<svg width="16" height="16" viewBox="0 0 16 16" fill="none" xmlns="http://www.w3.org/2000/svg">
  <path
    d="M6.95009 0.435C7.53008 -0.145 8.47007 -0.145 9.05007 0.435L15.565 6.95094C16.145 7.53094 16.145 8.47 15.565 9.04906L9.05007 15.565C8.47007 16.145 7.53102 16.145 6.95196 15.565L0.435153 9.05C-0.144217 8.47188 -0.145154 7.53344 0.432965 6.95406L0.435153 6.95188L6.95009 0.435Z"
    fill="#FF9500"/>
  <path
    d="M7 10.9992C7 10.447 7.44781 9.99922 7.99999 9.99922C8.55217 9.99922 8.99998 10.447 8.99998 10.9992C8.99998 11.5514 8.55217 11.9992 7.99999 11.9992C7.44781 11.9992 7 11.5514 7 10.9992ZM7.09781 4.99422C7.04531 4.49703 7.40562 4.05172 7.9028 3.99922C8.39999 3.94672 8.84529 4.30703 8.89779 4.80422V4.99422L8.5478 8.5011C8.52186 8.80485 8.25467 9.03016 7.95093 9.00422C7.68312 8.98141 7.47062 8.76891 7.44781 8.5011L7.09781 4.99422Z"
    fill="#2D2D2D"
  />
</svg>
