<svg width="16" height="16" viewBox="0 0 16 16" fill="none" xmlns="http://www.w3.org/2000/svg">
  <circle
    fill='#FFFF00'
    cx="8"
    cy="8"
    r="8"
  />
  <path
    d="M7.00391 11.0003C7.00391 10.4472 7.45078 10.0003 8.00391 10.0003C8.55703 10.0003 9.00391 10.4472 9.00391 11.0003C9.00391 11.5534 8.55703 12.0003 8.00391 12.0003C7.45078 12.0003 7.00391 11.5534 7.00391 11.0003ZM7.10078 4.99404C7.04766 4.49716 7.41016 4.05341 7.90703 4.00029C8.40391 3.94716 8.85078 4.30966 8.90078 4.80654V4.99716L8.55078 8.50341C8.52578 8.80654 8.25703 9.03154 7.95391 9.00654C7.68516 8.98466 7.47266 8.77216 7.45078 8.50341L7.10078 4.99404Z"
    fill="#2D2D2D"
  />
</svg>
