<svg width="16" height="16" viewBox="0 0 16 16" fill="none" xmlns="http://www.w3.org/2000/svg">
  <path
    fill-rule="evenodd"
    clip-rule="evenodd"
    d="M8.98141 0.567882C8.67203 0.0272573 7.98141 -0.160243 7.44078 0.149132C7.26578 0.249132 7.12203 0.392882 7.02203 0.567882L0.165781 12.2304C-0.293594 13.0085 0.256406 13.9991 1.14391 13.9991H14.8533C15.7408 13.9991 16.2908 13.0085 15.8314 12.2304L8.98141 0.567882Z"
    fill="#D10000"
  />
  <path
    d="M7 10.9991C7 10.446 7.44687 9.99911 8 9.99911C8.55313 9.99911 9 10.446 9 10.9991C9 11.5522 8.55313 11.9991 8 11.9991C7.44687 11.9991 7 11.5522 7 10.9991ZM7.1 4.99599C7.04687 4.49911 7.40937 4.05224 7.90312 4.00224C8.4 3.94911 8.84688 4.31161 8.89688 4.80536V4.99599L8.54688 8.50224C8.52187 8.80536 8.25312 9.03036 7.95 9.00536C7.68125 8.98349 7.46875 8.77099 7.44688 8.50224L7.1 4.99599Z"
    fill="#ffffff"
  />
</svg>
